<svg width="282" height="46" viewBox="0 0 282 46" fill="none" xmlns="http://www.w3.org/2000/svg">
<path d="M0 0H282L260.5 23L282 46H0L26 23L0 0Z" fill="#D9D9D9"/>
<path d="M72.517 32V14.5455H84.2784V17.5881H76.2074V21.7472H83.6733V24.7898H76.2074V28.9574H84.3125V32H72.517ZM90.6726 14.5455L94.1925 20.4943H94.3288L97.8658 14.5455H102.033L96.7067 23.2727L102.153 32H97.9084L94.3288 26.0426H94.1925L90.6129 32H86.3857L91.8487 23.2727L86.4879 14.5455H90.6726ZM118.949 20.6562H115.216C115.148 20.1733 115.009 19.7443 114.798 19.3693C114.588 18.9886 114.318 18.6648 113.989 18.3977C113.659 18.1307 113.278 17.9261 112.847 17.7841C112.42 17.642 111.957 17.571 111.457 17.571C110.554 17.571 109.767 17.7955 109.097 18.2443C108.426 18.6875 107.906 19.3352 107.537 20.1875C107.168 21.0341 106.983 22.0625 106.983 23.2727C106.983 24.517 107.168 25.5625 107.537 26.4091C107.912 27.2557 108.435 27.8949 109.105 28.3267C109.776 28.7585 110.551 28.9744 111.432 28.9744C111.926 28.9744 112.384 28.9091 112.804 28.7784C113.23 28.6477 113.608 28.4574 113.938 28.2074C114.267 27.9517 114.54 27.642 114.756 27.2784C114.977 26.9148 115.131 26.5 115.216 26.0341L118.949 26.0511C118.852 26.8523 118.611 27.625 118.224 28.3693C117.844 29.108 117.33 29.7699 116.682 30.3551C116.04 30.9347 115.273 31.3949 114.381 31.7358C113.494 32.071 112.491 32.2386 111.372 32.2386C109.815 32.2386 108.423 31.8864 107.196 31.1818C105.974 30.4773 105.009 29.4574 104.298 28.1222C103.594 26.7869 103.241 25.1705 103.241 23.2727C103.241 21.3693 103.599 19.75 104.315 18.4148C105.031 17.0795 106.003 16.0625 107.23 15.3636C108.457 14.6591 109.838 14.3068 111.372 14.3068C112.384 14.3068 113.321 14.4489 114.185 14.733C115.054 15.017 115.824 15.4318 116.494 15.9773C117.165 16.517 117.71 17.179 118.131 17.9631C118.557 18.7472 118.83 19.6449 118.949 20.6562ZM121.595 32V14.5455H125.286V28.9574H132.768V32H121.595ZM145.994 14.5455H149.684V25.8807C149.684 27.1534 149.38 28.267 148.772 29.2216C148.17 30.1761 147.326 30.9205 146.241 31.4545C145.156 31.983 143.891 32.2472 142.448 32.2472C140.999 32.2472 139.732 31.983 138.647 31.4545C137.562 30.9205 136.718 30.1761 136.116 29.2216C135.513 28.267 135.212 27.1534 135.212 25.8807V14.5455H138.903V25.5653C138.903 26.2301 139.048 26.821 139.337 27.3381C139.633 27.8551 140.048 28.2614 140.582 28.5568C141.116 28.8523 141.738 29 142.448 29C143.164 29 143.786 28.8523 144.315 28.5568C144.849 28.2614 145.261 27.8551 145.55 27.3381C145.846 26.821 145.994 26.2301 145.994 25.5653V14.5455ZM162.189 19.5653C162.121 18.8778 161.828 18.3437 161.311 17.9631C160.794 17.5824 160.092 17.392 159.206 17.392C158.604 17.392 158.095 17.4773 157.68 17.6477C157.266 17.8125 156.947 18.0426 156.726 18.3381C156.51 18.6335 156.402 18.9688 156.402 19.3438C156.391 19.6562 156.456 19.929 156.598 20.1619C156.746 20.3949 156.947 20.5966 157.203 20.767C157.459 20.9318 157.754 21.0767 158.089 21.2017C158.425 21.321 158.783 21.4233 159.163 21.5085L160.732 21.8835C161.493 22.054 162.192 22.2812 162.828 22.5653C163.464 22.8494 164.016 23.1989 164.482 23.6136C164.947 24.0284 165.308 24.517 165.564 25.0795C165.825 25.642 165.959 26.2869 165.964 27.0142C165.959 28.0824 165.686 29.0085 165.146 29.7926C164.612 30.571 163.839 31.1761 162.828 31.608C161.822 32.0341 160.609 32.2472 159.189 32.2472C157.78 32.2472 156.553 32.0312 155.507 31.5994C154.467 31.1676 153.655 30.5284 153.07 29.6818C152.49 28.8295 152.186 27.7756 152.158 26.5199H155.729C155.768 27.1051 155.936 27.5937 156.232 27.9858C156.533 28.3722 156.933 28.6648 157.433 28.8636C157.939 29.0568 158.51 29.1534 159.146 29.1534C159.771 29.1534 160.314 29.0625 160.774 28.8807C161.24 28.6989 161.601 28.446 161.857 28.1222C162.112 27.7983 162.24 27.4261 162.24 27.0057C162.24 26.6136 162.124 26.2841 161.891 26.017C161.663 25.75 161.328 25.5227 160.885 25.3352C160.447 25.1477 159.911 24.9773 159.274 24.8239L157.374 24.3466C155.902 23.9886 154.74 23.429 153.888 22.6676C153.036 21.9062 152.612 20.8807 152.618 19.5909C152.612 18.5341 152.893 17.6108 153.462 16.821C154.036 16.0312 154.822 15.4148 155.822 14.9716C156.822 14.5284 157.959 14.3068 159.232 14.3068C160.527 14.3068 161.658 14.5284 162.624 14.9716C163.595 15.4148 164.351 16.0312 164.891 16.821C165.43 17.6108 165.709 18.5256 165.726 19.5653H162.189ZM172.137 14.5455V32H168.447V14.5455H172.137ZM178.327 14.5455L182.545 27.8068H182.707L186.935 14.5455H191.026L185.009 32H180.253L174.227 14.5455H178.327ZM208.182 23.2727C208.182 25.1761 207.821 26.7955 207.099 28.1307C206.384 29.4659 205.406 30.4858 204.168 31.1903C202.935 31.8892 201.548 32.2386 200.009 32.2386C198.457 32.2386 197.065 31.8864 195.832 31.1818C194.599 30.4773 193.625 29.4574 192.909 28.1222C192.193 26.7869 191.835 25.1705 191.835 23.2727C191.835 21.3693 192.193 19.75 192.909 18.4148C193.625 17.0795 194.599 16.0625 195.832 15.3636C197.065 14.6591 198.457 14.3068 200.009 14.3068C201.548 14.3068 202.935 14.6591 204.168 15.3636C205.406 16.0625 206.384 17.0795 207.099 18.4148C207.821 19.75 208.182 21.3693 208.182 23.2727ZM204.44 23.2727C204.44 22.0398 204.256 21 203.886 20.1534C203.523 19.3068 203.009 18.6648 202.344 18.2273C201.679 17.7898 200.901 17.571 200.009 17.571C199.116 17.571 198.338 17.7898 197.673 18.2273C197.009 18.6648 196.491 19.3068 196.122 20.1534C195.759 21 195.577 22.0398 195.577 23.2727C195.577 24.5057 195.759 25.5455 196.122 26.392C196.491 27.2386 197.009 27.8807 197.673 28.3182C198.338 28.7557 199.116 28.9744 200.009 28.9744C200.901 28.9744 201.679 28.7557 202.344 28.3182C203.009 27.8807 203.523 27.2386 203.886 26.392C204.256 25.5455 204.44 24.5057 204.44 23.2727Z" fill="#D53F3F"/>
</svg>
